<?xml version="1.0" encoding="UTF-8"?>
<svg width="1080" xmlns="http://www.w3.org/2000/svg" viewBox="0 0 380.79 769.59">
  <defs>
    <style>
      .cls-1 {
        fill: #fff;
      }
    </style>
  </defs>
    <path class="cls-1" d="M169.2,63.6l37.2,32c-3.2,3.6-8.4,6-16.8,7.6-3.2,150.4-9.6,218-30,240-12.8,13.6-29.6,19.6-49.2,19.6,0-12.8-1.6-22-6.8-27.6-6-6.4-19.2-10.8-34.4-14l.4-6.4c14.4,1.6,37.6,3.6,46,3.6,7.6,0,10.8-1.6,14.8-5.2,13.6-13.2,19.2-85.6,22-216.4h-46.4c-4,96.4-20,196.8-100,272l-6-5.6c54.8-79.2,66.4-173.2,68.8-266.4H13.6l-3.6-11.6h58.8c.8-28.8.4-57.2.4-85.2l53.2,5.2c-1.2,6-4.4,9.6-14.4,11.2-.4,22.4-.4,45.6-1.2,68.8h41.2l21.2-21.6ZM375.59,76c-2.8,3.2-9.2,6.4-17.2,8.4v256c-.8,3.6-18.8,14-32.8,14h-6v-38h-59.6v30.4c0,4.8-14,14-30.4,14h-6.4V48.4l38.4,17.6h53.6l20-22.4,40.4,32.4ZM319.6,305.2V77.6h-59.6v227.6h59.6Z"/>
    <path class="cls-1" d="M313.6,602.39c19.6,15.2,42.8,26.4,67.2,34l-.4,4.4c-13.2,2.4-22,12.8-26.4,28.8-6.8-3.6-13.2-7.6-19.2-12-2,2-6,3.6-12,2.4-8.4,8-22.8,19.6-36.4,30,84.8,19.6,71.6,76.8,38,61.6-11.2-20.4-38.4-44-61.2-58.8v38.8c0,23.6-4.4,34.8-39.6,38-.8-7.6-2-14.8-6-19.2-4-3.6-10-7.2-22.8-8.8v-6s24,2,29.6,2c6,0,7.2-1.6,7.2-6.4v-121.6l44.8,4.4c-.8,5.6-3.6,8.4-13.2,10v61.6c5.2.8,10.4,1.6,15.2,2.4,6.8-16.4,14.4-40,18-52l26.4,12.4c-15.2-13.2-28.4-28-38.8-46h-67.2c-10.4,14.8-22.8,28-36,38.8,60.8,22.4,25.6,65.2,3.2,42,.8-12.4-4-26.8-9.6-36.8-13.6,10.4-28.4,19.2-44.8,26.4v55.6c0,24.4-5.2,37.6-42,41.2-.8-9.2-2-17.6-6-22.4s-10.4-8.4-23.6-10.8v-6s24.8,2,31.6,2c5.6,0,6.8-2.4,6.8-7.2v-71.2h-34.4c-4.8,40.8-18,82.8-53.6,114.8l-5.2-4c28-49.2,29.2-112,29.2-170.8v-112.4l38,15.2h22l16.4-18.8,37.6,28.4c-2.8,3.2-9.2,6.8-16.8,8v149.6c21.6-16.4,40.4-36.8,56-61.6h-48l-2.8-11.2h57.2c6.4-11.2,12-23.6,16.8-36.4h-60.4l-3.2-11.6h67.6c6.4-19.6,11.2-41.2,14.4-64.4l1.2.4v-28.8h-76v24.4c0,3.6-14.8,8-30.4,8h-6v-32.4H9.2l-2.8-11.6h109.6v-41.6l50.4,4.4c-.4,5.6-4,9.6-14,10.8v26.4h76v-41.6l51.2,4.4c-.8,5.6-4.4,9.6-14.4,10.8v26.4h52.4l21.6-26.4s23.6,18.4,37.6,31.6c-.8,4.4-4.8,6.4-10.8,6.4h-100.8v22.8c0,2.8-12,7.2-27.2,8l38.4,8.4c-1.2,5.2-6,8.8-15.2,8.8-4,16-8.4,31.2-13.6,44.8h64.8l18.8-22s20.8,15.6,34,27.2c-1.2,4.4-4.4,6.4-10,6.4h-82.4c7.2,13.6,16.8,26,28,36.4h19.2l19.2-23.6s22.4,16.8,36,28.4c-1.2,4.4-5.2,6.4-10.8,6.4h-50.8ZM96.4,642.79v-63.2h-31.6v14.4c0,15.2-.4,32-1.6,48.8h33.2ZM64.8,508.39v59.6h31.6v-59.6h-31.6ZM230.8,696.79c-12.8,10.4-32.8,27.2-59.2,48-.8,4.8-3.6,8.8-7.6,10l-22.8-35.6c16-4,52.4-15.2,87.6-27.2l2,4.8ZM162,481.19c70.8,24.8,36.8,75.2,12,51.2.4-16.4-7.6-36.8-16.4-48.8l4.4-2.4ZM278,591.19c-5.6-11.2-10.4-23.2-14.4-36.4h-20.4c-5.6,13.2-12,25.2-18.8,36.4h53.6ZM278.8,538.39c6.4-14,14.4-37.2,20.4-59.2l44.4,16.8c-1.6,4.4-6.8,8-15.2,7.2-13.2,14.8-29.6,29.6-43.6,38.8l-6-3.6Z"/>
</svg>