<?xml version="1.0" encoding="UTF-8"?>
<svg width="1080" xmlns="http://www.w3.org/2000/svg" viewBox="0 0 880.78 300.8">
  <defs>
    <style>
      .cls-1 {
      fill: #fff;
      }
    </style>
  </defs>
  <path class="cls-1"
    d="M279.6,280.4v14.4h-116.8v-14.4l34.8-4-72.4-134.4-40,48.8c0,25.6,0,54.8.8,85.2l38.8,4.4v14.4H0v-14.4l39.6-4.4c.8-38.8.8-78.4.8-118.4v-20.4c0-39.2,0-79.2-.8-118.4L0,14.4V0h126.4v14.4l-40.4,4.4c-.8,38.8-.8,78-.8,118.4v30L203.2,20.4l-36.8-6V0h101.2v14.4l-41.6,6-72.4,87.6,93.6,168.4,32.4,4Z" />
  <path class="cls-1"
    d="M503.99,275.6c-9.6,18-22.4,24.4-40.4,24.4-22.4,0-36.8-13.2-40.8-34.8-23.2,23.6-38.8,35.6-66.8,35.6-32.8,0-57.6-19.2-57.6-53.6,0-29.6,16.8-49.2,75.2-69.2,13.6-4,31.2-9.2,48-13.2v-16.4c0-42.8-11.6-54.4-41.6-54.4-7.2,0-14.8.8-23.6,3.2l-6.8,29.6c-3.2,16.8-11.6,24.8-24,24.8s-19.6-6-21.2-17.6c6.8-34.4,39.2-55.6,88.4-55.6s70.8,21.6,70.8,76.4v98.4c0,20,6,26.4,15.2,26.4,7.2,0,11.6-3.2,18.4-11.2l6.8,7.2ZM421.59,177.6c-14.4,4-28,8.4-36.4,11.6-35.2,14-44.4,31.6-44.4,51.6,0,23.6,14,34,34,34,14.4,0,24.4-5.6,46.8-23.6v-73.6Z" />
  <path class="cls-1"
    d="M653.59,275.6c-11.2,16-29.2,25.2-53.6,25.2-33.6,0-52.4-17.2-52.4-54,0-12,.4-22.4.4-38.8v-105.6h-36.4v-14.4l38.8-4.4,13.6-61.2h28.8l-2,62h56.4v18h-56.8v144.4c0,22.8,10,32.4,26,32.4,10,0,18-4,29.2-12.4l8,8.8Z" />
  <path class="cls-1"
    d="M673.18,189.6c0-72,49.6-111.2,104-111.2s103.6,38.8,103.6,111.2-48.4,111.2-103.6,111.2-104-39.2-104-111.2ZM834.38,190c0-63.2-21.6-96-57.2-96s-57.2,32.8-57.2,96,20.8,94.8,57.2,94.8,57.2-32,57.2-94.8Z" />
</svg>