<?xml version="1.0" encoding="UTF-8"?>
<svg width="1080" xmlns="http://www.w3.org/2000/svg" viewBox="0 0 754 373.99">
  <defs>
    <style>
      .cls-1 {
      fill: #fff;
      }
    </style>
  </defs>
  <path class="cls-1"
    d="M194.8,68.4c12,0,15.6,2,15.6,5.2,0,4-6.8,10.4-10.8,18C162.4,235.2,34,317.2,24,317.2c-1.2,0-1.6-.4-1.6-1.2,0-1.2,2.4-4.4,7.2-8.4,37.6-30,99.2-96,122.8-154.4-31.2,8-64.4,16-89.6,21.6-6,2-7.2,6-12.8,6-6,0-16.8-4-43.2-18.8-4-2-6.8-4.8-6.8-6.8,0-1.6,1.6-2.4,4.8-2.4,1.6,0,4,.4,6.8.8,9.2,1.6,20,2,31.6,2,35.2,0,78.4-5.6,113.2-12.8,4.4-9.2,14-45.2,16.4-59.6-19.2.8-62.8,2.8-84,4.4-10.4,2-12,6-18,6-7.2,0-40.8-14.8-40.8-20.8,0-1.2,1.6-2,4.8-2,1.6,0,4,.4,6.8.8,13.2,2.8,31.2,3.6,50.4,3.6,22.8,0,64.8-1.6,74.8-2.8,12-1.6,3.6-4,26.4-4h1.6ZM258.8,34c-.4-6.8-22-16.4-38.8-24-4.4-1.6-7.2-3.6-7.2-5.2,0-2.4,4.8-4.4,16.8-4.8,17.2,2.8,33.2,6.8,46,10.8,8.4,3.2,10.4,6,10.4,10,0,3.2-1.2,6.8-1.2,12.8v145.6h20c18.8-2.8,12.4-10.4,38-10.4,7.6,0,24.4,0,24.4,12.4,0,5.6-4.8,10.4-13.6,10.4h-69.2l-.4,116c-.4,26-3.2,42.4-10,59.2-3.2,4.8-6.4,7.2-9.2,7.2-3.6,0-6-5.2-6-18.4V34Z" />
  <path class="cls-1"
    d="M736.79,318.79c-31.2-2-75.6-4-125.2-4-69.6,0-104.4,3.2-138.4,6.4-12,1.2-16.4,5.6-25.6,5.6-8,0-20-3.6-44-17.2-5.6-2.8-8.4-5.2-8.4-7.2,0-1.2,1.2-2,4.8-2,2,0,5.2.4,8.8,1.2,20.8,4,48.8,5.2,82,5.2,22.8,0,48-.8,75.2-1.6-.4-7.6-.4-21.6-1.2-89.6-16,0-34.4.4-55.2.8-24.8,0-36.8-10-37.2-28l-1.2-110.4c-.4-8-12.8-14.4-28.8-19.6-4.8-.8-9.6-3.2-9.6-5.6,0-3.6,10.4-5.6,15.6-5.6,17.2,0,41.2,4.8,52.4,8.8,32-.4,79.2-1.6,128.4-3.2,20.8-4,14.4-12,43.6-12s30.4,9.6,30.4,12.4c0,4.4-5.2,8.4-13.2,8.4-66.8,2.4-152,4.4-186.8,6-3.6,2.4-6,0-6,6.4v55.2c33.6-.8,75.6-1.2,132.4-3.2,17.2-2.4,4.4-9.6,41.6-10,12.8,0,18.4,4.8,18.4,9.6s-5.6,9.6-14.4,10c-27.2,1.2-127.2,2.8-178,4.4v51.6c.4,13.6,4.4,13.6,33.2,13.6,30.4,0,60.8-.8,100.8-3.2,24.8-2,10.4-10.8,48.8-10.8,8,0,24.8,0,24.8,10,0,5.2-6.4,10.8-16,10.8-29.6,1.6-58.4,2-98.4,2.4,0,55.2,0,71.2-.8,89.6,18.4-.4,50.4-1.2,85.6-3.2,15.6-.8,13.2-7.6,32-7.6,9.6,0,46.8,2,46.8,16.4,0,4.8-5.6,9.2-15.2,9.2h-2Z" />
</svg>